<svg xmlns="http://www.w3.org/2000/svg" width="1000" height="700" viewBox="0 0 1000 700" fill="none">
 <rect width="1000" height="700" fill="#EDF2F5"/>
 <rect x="100" y="90" width="800" height="520" rx="24" fill="#FFFFFF" stroke="#CFD9DF"/>
 <g font-family="Arial, sans-serif" fill="#263D4B">
  <text x="150" y="155" font-size="17" letter-spacing="3">WORK PROCESS / PYTHON</text>
  <text x="150" y="220" font-size="42" font-weight="700">Understand. Automate.</text>
  <text x="150" y="272" font-size="42" font-weight="700">Check the result.</text>
  <g font-size="17">
   <rect x="150" y="330" width="210" height="150" rx="12" fill="#F3F6F8" stroke="#DAE1E6"/>
   <rect x="395" y="330" width="210" height="150" rx="12" fill="#F3F6F8" stroke="#DAE1E6"/>
   <rect x="640" y="330" width="210" height="150" rx="12" fill="#F3F6F8" stroke="#DAE1E6"/>
   <text x="176" y="370" fill="#526B7B">01 / CRITERIA</text>
   <text x="176" y="430" font-size="23" font-weight="700">Compare rules</text>
   <text x="421" y="370" fill="#526B7B">02 / AUTOMATE</text>
   <text x="421" y="430" font-size="23" font-weight="700">Python</text>
   <text x="666" y="370" fill="#526B7B">03 / REVIEW</text>
   <text x="666" y="430" font-size="23" font-weight="700">Check output</text>
  </g>
  <path d="M369 405H385M378 398L385 405L378 412M614 405H630M623 398L630 405L623 412" stroke="#526B7B" stroke-width="2"/>
  <text x="150" y="551" font-size="17" fill="#526B7B">LINC / Company list comparison</text>
 </g>
</svg>
